<?xml version="1.0" encoding="UTF-8"?>
<!DOCTYPE svg PUBLIC "-//W3C//DTD SVG 1.1//EN" "http://www.w3.org/Graphics/SVG/1.1/DTD/svg11.dtd">
<!-- Creator: CorelDRAW -->
<svg xmlns="http://www.w3.org/2000/svg" xml:space="preserve" width="31.75mm" height="15.8mm" version="1.1" style="shape-rendering:geometricPrecision; text-rendering:geometricPrecision; image-rendering:optimizeQuality; fill-rule:evenodd; clip-rule:evenodd"
viewBox="0 0 3175 1580"
 xmlns:xlink="http://www.w3.org/1999/xlink"
 xmlns:xodm="http://www.corel.com/coreldraw/odm/2003">
 <defs>
  <style type="text/css">
   <![CDATA[
    .fil0 {fill:#FEFEFE;fill-rule:nonzero}
   ]]>
  </style>
 </defs>
 <g id="Camada_x0020_1">
  <metadata id="CorelCorpID_0Corel-Layer"/>
  <path class="fil0" d="M116.21 1097.28l0 -122.77 214.2 -198.12c13.55,-12.98 23.57,-24.27 30.06,-33.86 6.49,-9.6 10.87,-18.21 13.12,-25.83 2.26,-7.62 3.39,-14.81 3.39,-21.59 0,-14.67 -4.8,-26.1 -14.39,-34.29 -9.6,-8.18 -23.99,-12.28 -43.18,-12.28 -17.5,0 -34.15,4.66 -49.96,13.97 -15.8,9.32 -28.22,23.01 -37.25,41.07l-150.71 -75.36c21.45,-40.64 53.63,-73.66 96.52,-99.06 42.9,-25.4 96.24,-38.1 160.02,-38.1 46.85,0 88.34,7.62 124.46,22.86 36.13,15.24 64.35,36.69 84.67,64.35 20.32,27.66 30.48,60.4 30.48,98.22 0,19.19 -2.4,38.38 -7.19,57.57 -4.8,19.19 -14.54,39.37 -29.21,60.54 -14.68,21.16 -36.41,44.73 -65.2,70.69l-160.87 146.48 -31.32 -69.43 307.34 0 0 154.94 -474.98 0z"/>
  <path id="_1" class="fil0" d="M599.65 1097.28l259.08 -592.67 196.43 0 259.08 592.67 -206.58 0 -191.35 -497.84 77.89 0 -191.35 497.84 -203.2 0zm154.1 -103.29l50.8 -143.94 272.63 0 50.8 143.94 -374.23 0z"/>
  <path id="_2" class="fil0" d="M1380.3 891.54l201.51 0c18.77,0 33.3,-4.09 43.32,-12.42 10.02,-8.32 15.1,-20.18 15.1,-35.7 0,-15.1 -4.8,-26.81 -14.53,-35.14 -9.6,-8.32 -23.43,-12.41 -41.35,-12.41l-204.05 0 0 95.67zm0 51.65l0 154.09 -55.03 0 0 -353.06 256.54 0c36.41,0 64.63,8.61 84.81,25.82 20.18,17.22 30.34,41.49 30.34,72.67 0,29.5 -10.02,53.63 -30.06,72.39 -20.18,18.77 -46.57,28.09 -79.16,28.09l-207.44 0z"/>
  <path id="_3" class="fil0" d="M1830.87 891.54l187.68 0c19.05,0 33.59,-4.09 43.61,-12.42 10.01,-8.32 15.09,-20.18 15.09,-35.7 0,-15.38 -5.08,-27.23 -15.09,-35.28 -10.02,-8.18 -24.56,-12.27 -43.61,-12.27l-187.68 0 0 95.67zm0 51.65l0 154.09 -55.03 0 0 -352.21 242.71 0c36.13,0 64.35,8.74 84.81,26.1 20.46,17.36 30.62,41.49 30.62,72.39 0,24.98 -8.04,46.71 -24.27,65.05 -16.09,18.35 -37.11,29.64 -63.08,33.73l98.36 154.94 -59.97 0 -100.19 -154.09 -153.96 0z"/>
  <polygon id="_4" class="fil0" points="2234.74,1097.28 2234.74,743.37 2290.62,743.37 2290.62,1097.28 "/>
  <polygon id="_5" class="fil0" points="2413.39,1097.28 2413.39,744.22 2442.32,744.22 2666.54,992.29 2666.54,744.22 2720.73,744.22 2720.73,1097.28 2691.8,1097.28 2467.58,850.05 2467.58,1097.28 "/>
  <polygon id="_6" class="fil0" points="2925.48,1097.28 2925.48,793.33 2776.47,793.33 2776.47,744.22 3129.53,744.22 3129.53,793.33 2980.52,793.33 2980.52,1097.28 "/>
 </g>
</svg>
